<svg xmlns="http://www.w3.org/2000/svg" viewBox="0 0 32 32">
  <rect width="32" height="32" rx="6" fill="#1e293b"/>
  <rect x="3" y="3" width="12" height="12" rx="3" fill="#3b82f6" opacity="0.3" stroke="#3b82f6" stroke-width="1"/>
  <rect x="17" y="3" width="12" height="12" rx="3" fill="#10b981" opacity="0.3" stroke="#10b981" stroke-width="1"/>
  <rect x="3" y="17" width="12" height="12" rx="3" fill="#f59e0b" opacity="0.3" stroke="#f59e0b" stroke-width="1"/>
  <rect x="17" y="17" width="12" height="12" rx="3" fill="#8b5cf6" opacity="0.3" stroke="#8b5cf6" stroke-width="1"/>
  <rect x="5" y="7" width="4" height="6" rx="1" fill="#3b82f6"/>
  <rect x="9.5" y="9" width="3" height="4" rx="1" fill="#3b82f6" opacity="0.6"/>
  <rect x="19" y="5" width="4" height="8" rx="1" fill="#10b981"/>
  <rect x="23.5" y="8" width="3" height="5" rx="1" fill="#10b981" opacity="0.6"/>
  <rect x="5" y="21" width="4" height="6" rx="1" fill="#f59e0b"/>
  <rect x="9.5" y="23" width="3" height="4" rx="1" fill="#f59e0b" opacity="0.6"/>
  <rect x="19" y="19" width="4" height="8" rx="1" fill="#8b5cf6"/>
  <rect x="23.5" y="22" width="3" height="5" rx="1" fill="#8b5cf6" opacity="0.6"/>
</svg>
